<?xml version="1.0" encoding="iso-8859-1"?>
<!DOCTYPE svg PUBLIC "-//W3C//DTD SVG 1.0//EN" "http://www.w3.org/TR/2001/REC-SVG-20010904/DTD/svg10.dtd">
<svg width="400" height="220" xmlns="http://www.w3.org/2000/svg" xmlns:xlink="http://www.w3.org/1999/xlink">

<g style="fill:#000000">

<defs>
	<linearGradient id="graphFill" x1="0%" y1="0%" x2="100%" y2="100%">
		<stop stop-color="black" offset="0%"   stop-opacity="0.7"/>
		<stop stop-color="teal"  offset="50%"  stop-opacity="0.6"/>
		<stop stop-color="white" offset="100%" stop-opacity="0.9"/>
	</linearGradient>
</defs>

<g transform="translate(0,140) scale(0.71875,-2.7)" stroke-width="0.1">
<path stroke="red" d="M0,10 H512 M0,20 H512 M0,30 H512 M0,40 H512"/>
<path stroke="blue" d="M0,-10 H512 M0,-20 H512"/>
<path stroke="black" d="M0,0 H512"/>
<path stroke-width="0.2" stroke="gray" 
      d="M1,42 V-22 M102.4,42 V-22 M204.8,42 V-22 M307.2,42 V-22 M409.6,42 V-22 M512,42 V-22"/>
</g>

<path transform="translate(0,140) scale(0.71875,-0.16875)" fill="url(#graphFill)" stroke-width="0.6" d="M0,0 L000,+0290 L001,+0290 L002,+0290 L003,+0290 L004,+0291 L005,+0353 L006,+0398 L007,+0418 L008,+0435 L009,+0433 L010,+0444 L011,+0447 L012,+0449 L013,+0445 L014,+0448 L015,+0450 L016,+0451 L017,+0460 L018,+0461 L019,+0461 L020,+0462 L021,+0462 L022,+0462 L023,+0462 L024,+0465 L025,+0460 L026,+0447 L027,+0416 L028,+0398 L029,+0382 L030,+0370 L031,+0369 L032,+0355 L033,+0349 L034,+0352 L035,+0349 L036,+0337 L037,+0335 L038,+0334 L039,+0332 L040,+0339 L041,+0338 L042,+0337 L043,+0335 L044,+0334 L045,+0334 L046,+0333 L047,+0323 L048,+0323 L049,+0323 L050,+0322 L051,+0321 L052,+0321 L053,+0320 L054,+0320 L055,+0319 L056,+0319 L057,+0319 L058,+0318 L059,+0318 L060,+0318 L061,+0318 L062,+0317 L063,+0317 L064,+0316 L065,+0316 L066,+0323 L067,+0323 L068,+0323 L069,+0323 L070,+0323 L071,+0322 L072,+0322 L073,+0322 L074,+0322 L075,+0322 L076,+0322 L077,+0322 L078,+0322 L079,+0321 L080,+0321 L081,+0321 L082,+0321 L083,+0321 L084,+0320 L085,+0320 L086,+0320 L087,+0320 L088,+0320 L089,+0320 L090,+0319 L091,+0320 L092,+0000 L093,+0000 L094,+0000 L095,+0000 L096,+0000 L097,+0000 L098,+0000 L099,+0000 L100,+0355 L101,+0355 L102,+0355 L103,+0354 L104,+0354 L105,+0354 L106,+0354 L107,+0354 L108,+0353 L109,+0353 L110,+0353 L111,+0354 L112,+0353 L113,+0354 L114,+0354 L115,+0354 L116,+0354 L117,+0354 L118,+0353 L119,+0354 L120,+0353 L121,+0353 L122,+0353 L123,+0352 L124,+0352 L125,+0353 L126,+0353 L127,+0354 L128,+0353 L129,+0353 L130,+0354 L131,+0354 L132,+0354 L133,+0354 L134,+0354 L135,+0353 L136,+0353 L137,+0354 L138,+0354 L139,+0354 L140,+0354 L141,+0354 L142,+0354 L143,+0354 L144,+0354 L145,+0355 L146,+0355 L147,+0354 L148,+0353 L149,+0353 L150,+0354 L151,+0353 L152,+0353 L153,+0353 L154,+0353 L155,+0353 L156,+0353 L157,+0354 L158,+0354 L159,+0354 L160,+0354 L161,+0354 L162,+0354 L163,+0354 L164,+0354 L165,+0354 L166,+0354 L167,+0353 L168,+0352 L169,+0352 L170,+0352 L171,+0353 L172,+0353 L173,+0353 L174,+0354 L175,+0354 L176,+0354 L177,+0354 L178,+0354 L179,+0354 L180,+0354 L181,+0354 L182,+0353 L183,+0353 L184,+0352 L185,+0352 L186,+0352 L187,+0351 L188,+0351 L189,+0352 L190,+0352 L191,+0353 L192,+0353 L193,+0353 L194,+0353 L195,+0354 L196,+0354 L197,+0353 L198,+0353 L199,+0354 L200,+0354 L201,+0354 L202,+0354 L203,+0352 L204,+0352 L205,+0352 L206,+0352 L207,+0352 L208,+0353 L209,+0353 L210,+0353 L211,+0354 L212,+0354 L213,+0354 L214,+0354 L215,+0353 L216,+0354 L217,+0354 L218,+0354 L219,+0353 L220,+0354 L221,+0354 L222,+0353 L223,+0353 L224,+0352 L225,+0352 L226,+0352 L227,+0351 L228,+0351 L229,+0351 L230,+0351 L231,+0352 L232,+0352 L233,+0351 L234,+0352 L235,+0352 L236,+0353 L237,+0353 L238,+0352 L239,+0352 L240,+0351 L241,+0351 L242,+0351 L243,+0352 L244,+0352 L245,+0352 L246,+0352 L247,+0353 L248,+0353 L249,+0353 L250,+0353 L251,+0352 L252,+0353 L253,+0353 L254,+0353 L255,+0352 L256,+0352 L257,+0351 L258,+0351 L259,+0351 L260,+0350 L261,+0350 L262,+0350 L263,+0351 L264,+0351 L265,+0350 L266,+0350 L267,+0350 L268,+0351 L269,+0351 L270,+0352 L271,+0352 L272,+0352 L273,+0352 L274,+0351 L275,+0352 L276,+0352 L277,+0352 L278,+0353 L279,+0354 L280,+0350 L281,+0349 L282,+0350 L283,+0350 L284,+0350 L285,+0350 L286,+0349 L287,+0350 L288,+0349 L289,+0349 L290,+0349 L291,+0348 L292,+0348 L293,+0348 L294,+0349 L295,+0349 L296,+0349 L297,+0350 L298,+0349 L299,+0350 L300,+0350 L301,+0350 L302,+0350 L303,+0350 L304,+0350 L305,+0349 L306,+0349 L307,+0349 L308,+0349 L309,+0349 L310,+0349 L311,+0350 L312,+0349 L313,+0350 L314,+0350 L315,+0349 L316,+0350 L317,+0350 L318,+0350 L319,+0350 L320,+0350 L321,+0350 L322,+0350 L323,+0350 L324,+0350 L325,+0350 L326,+0350 L327,+0351 L328,+0350 L329,+0351 L330,+0351 L331,+0350 L332,+0350 L333,+0350 L334,+0350 L335,+0350 L336,+0350 L337,+0350 L338,+0350 L339,+0350 L340,+0350 L341,+0350 L342,+0350 L343,+0349 L344,+0349 L345,+0350 L346,+0350 L347,+0350 L348,+0350 L349,+0349 L350,+0349 L351,+0349 L352,+0349 L353,+0349 L354,+0349 L355,+0349 L356,+0349 L357,+0350 L358,+0350 L359,+0349 L360,+0350 L361,+0349 L362,+0349 L363,+0349 L364,+0349 L365,+0348 L366,+0348 L367,+0349 L368,+0349 L369,+0349 L370,+0348 L371,+0348 L372,+0348 L373,+0349 L374,+0348 L375,+0348 L376,+0348 L377,+0349 L378,+0349 L379,+0349 L380,+0349 L381,+0348 L382,+0348 L383,+0348 L384,+0349 L385,+0349 L386,+0349 L387,+0349 L388,+0349 L389,+0349 L390,+0349 L391,+0349 L392,+0349 L393,+0349 L394,+0349 L395,+0349 L396,+0349 L397,+0348 L398,+0348 L399,+0355 L400,+0355 L401,+0348 L402,+0348 L403,+0348 L404,+0348 L405,+0349 L406,+0348 L407,+0348 L408,+0349 L409,+0349 L410,+0349 L411,+0349 L412,+0349 L413,+0348 L414,+0348 L415,+0348 L416,+0348 L417,+0348 L418,+0348 L419,+0349 L420,+0349 L421,+0349 L422,+0349 L423,+0348 L424,+0348 L425,+0348 L426,+0348 L427,+0355 L428,+0355 L429,+0348 L430,+0348 L431,+0348 L432,+0348 L433,+0348 L434,+0355 L435,+0355 L436,+0355 L437,+0355 L438,+0355 L439,+0355 L440,+0355 L441,+0355 L442,+0355 L443,+0348 L444,+0348 L445,+0355 L446,+0348 L447,+0348 L448,+0355 L449,+0355 L450,+0354 L451,+0354 L452,+0354 L453,+0353 L454,+0353 L455,+0353 L456,+0353 L457,+0353 L458,+0354 L459,+0354 L460,+0355 L461,+0355 L462,+0354 L463,+0354 L464,+0354 L465,+0355 L466,+0355 L467,+0355 L468,+0355 L469,+0355 L470,+0355 L471,+0355 L472,+0355 L473,+0355 L474,+0355 L475,+0355 L476,+0355 L477,+0355 L478,+0355 L479,+0348 L480,+0348 L481,+0355 L482,+0355 L483,+0355 L484,+0355 L485,+0355 L486,+0355 L487,+0355 L488,+0355 L489,+0348 L490,+0348 L491,+0348 L492,+0348 L493,+0355 L494,+0355 L495,+0355 L496,+0355 L497,+0000 L498,+0495 L499,+0449 L500,+0414 L501,+0403 L502,+0387 L503,+0366 L504,+0355 L505,+0355 L506,+0349 L507,+0337 L508,+0333 L509,+0337 L510,+0335 L511,+0333  L512,0 z" stroke="black"/>
</g>                                                  

<text x="201" y="20" font-size="22" text-anchor="middle" fill="#b0b0b0">Nadpis grafu</text>
<text x="200" y="19" font-size="22" text-anchor="middle">Nadpis grafu</text>
<text x="398" y="35" font-size="10" text-anchor="end">+40°C</text>
<text x="398" y="62" font-size="10" text-anchor="end">+30°C</text>
<text x="398" y="89" font-size="10" text-anchor="end">+20°C</text>
<text x="398" y="116" font-size="10" text-anchor="end">+10°C</text>
<text x="398" y="143" font-size="10" text-anchor="end">0°C</text>
<text x="398" y="169" font-size="10" text-anchor="end">-10°C</text>
<text x="398" y="196" font-size="10" text-anchor="end">-20°C</text>
<text x="298" y="206" font-size="11">-5 min</text>
<text x="224" y="206" font-size="11">-10 min</text>
<text x="150" y="206" font-size="11">-15 min</text>
<text x="78" y="206" font-size="11">-20 min</text>
<text x="4" y="206" font-size="11">-25 min</text>

</svg>

